<svg width="12" height="16" viewBox="0 0 12 16" fill="none" xmlns="http://www.w3.org/2000/svg">
<path d="M11.5569 9.508C11.4891 9.58533 11.2331 9.916 10.9946 10.188C9.59649 11.8987 5.94915 14.6987 4.04014 15.5533C3.75022 15.6907 3.01724 15.9813 2.62562 16C2.25037 16 1.89264 15.904 1.55129 15.7093C1.12577 15.4373 0.784413 15.0093 0.59737 14.504C0.47696 14.1533 0.289917 13.104 0.289917 13.0853C0.102874 11.9373 -2.59121e-07 10.072 -3.49225e-07 8.01067C-4.35074e-07 6.04667 0.102873 4.25733 0.256015 3.092C0.27355 3.07333 0.460594 1.76933 0.665172 1.32267C1.04043 0.506667 1.7734 8.76156e-07 2.55782 8.41869e-07L2.62562 8.38905e-07C3.13648 0.0200013 4.21081 0.526668 4.21081 0.545335C6.01695 1.40133 9.58013 4.064 11.0122 5.83333C11.0122 5.83333 11.4155 6.288 11.5908 6.572C11.8644 6.98 12 7.48533 12 7.99067C12 8.55467 11.8469 9.08 11.5569 9.508Z" fill="white"/>
</svg>
