<svg width="24" height="24" viewBox="0 0 24 24" fill="none" xmlns="http://www.w3.org/2000/svg">
<path d="M18.61 4.42C18.61 3.41023 17.7886 2.57 16.76 2.57C17.7777 2.57 18.61 3.39609 18.61 4.42Z" fill="white" stroke="white" stroke-width="1.5"/>
<mask id="path-2-inside-1_0_119" fill="white">
<path d="M10.3 18.85C9.89005 18.85 9.55005 18.51 9.55005 18.1V3.32C9.55005 2.91 9.89005 2.57 10.3 2.57C10.71 2.57 11.05 2.91 11.05 3.32V18.1C11.05 18.52 10.71 18.85 10.3 18.85Z"/>
</mask>
<path d="M10.3 18.85C9.89005 18.85 9.55005 18.51 9.55005 18.1V3.32C9.55005 2.91 9.89005 2.57 10.3 2.57C10.71 2.57 11.05 2.91 11.05 3.32V18.1C11.05 18.52 10.71 18.85 10.3 18.85Z" fill="white"/>
<path d="M10.3 17.35C10.7185 17.35 11.05 17.6816 11.05 18.1H8.05005C8.05005 19.3384 9.06162 20.35 10.3 20.35V17.35ZM11.05 18.1V3.32H8.05005V18.1H11.05ZM11.05 3.32C11.05 3.73843 10.7185 4.07 10.3 4.07V1.07C9.06162 1.07 8.05005 2.08157 8.05005 3.32H11.05ZM10.3 4.07C9.88162 4.07 9.55005 3.73843 9.55005 3.32H12.55C12.55 2.08157 11.5385 1.07 10.3 1.07V4.07ZM9.55005 3.32V18.1H12.55V3.32H9.55005ZM9.55005 18.1C9.55005 17.6786 9.89469 17.35 10.3 17.35V20.35C11.5254 20.35 12.55 19.3614 12.55 18.1H9.55005Z" fill="white" mask="url(#path-2-inside-1_0_119)"/>
<mask id="path-4-inside-2_0_119" fill="white">
<path d="M12.4799 18.85H6.8999C6.4899 18.85 6.1499 18.51 6.1499 18.1C6.1499 17.69 6.4899 17.35 6.8999 17.35H12.4799C12.8899 17.35 13.2299 17.69 13.2299 18.1C13.2299 18.51 12.8899 18.85 12.4799 18.85Z"/>
</mask>
<path d="M12.4799 18.85H6.8999C6.4899 18.85 6.1499 18.51 6.1499 18.1C6.1499 17.69 6.4899 17.35 6.8999 17.35H12.4799C12.8899 17.35 13.2299 17.69 13.2299 18.1C13.2299 18.51 12.8899 18.85 12.4799 18.85Z" fill="white"/>
<path d="M12.4799 17.35H6.8999V20.35H12.4799V17.35ZM6.8999 17.35C7.31833 17.35 7.6499 17.6816 7.6499 18.1H4.6499C4.6499 19.3384 5.66148 20.35 6.8999 20.35V17.35ZM7.6499 18.1C7.6499 18.5184 7.31833 18.85 6.8999 18.85V15.85C5.66148 15.85 4.6499 16.8616 4.6499 18.1H7.6499ZM6.8999 18.85H12.4799V15.85H6.8999V18.85ZM12.4799 18.85C12.0615 18.85 11.7299 18.5184 11.7299 18.1H14.7299C14.7299 16.8616 13.7183 15.85 12.4799 15.85V18.85ZM11.7299 18.1C11.7299 17.6816 12.0615 17.35 12.4799 17.35V20.35C13.7183 20.35 14.7299 19.3384 14.7299 18.1H11.7299Z" fill="white" mask="url(#path-4-inside-2_0_119)"/>
<path d="M22.0099 11.65C22.0099 10.9258 21.4141 10.33 20.6899 10.33C21.4157 10.33 22.0099 10.9242 22.0099 11.65Z" fill="white" stroke="white" stroke-width="1.5"/>
<path d="M16.0801 22.18C15.6701 22.18 15.3301 21.84 15.3301 21.43V10.87C15.3301 10.46 15.6701 10.12 16.0801 10.12C16.4901 10.12 16.8301 10.46 16.8301 10.87V21.43C16.8301 21.84 16.4901 22.18 16.0801 22.18Z" fill="white"/>
<path d="M18.2199 22.18H13.9399C13.5299 22.18 13.1899 21.84 13.1899 21.43C13.1899 21.02 13.5299 20.68 13.9399 20.68H18.2199C18.6299 20.68 18.9699 21.02 18.9699 21.43C18.9699 21.84 18.6299 22.18 18.2199 22.18Z" fill="white"/>
</svg>
