<svg width="70" height="70" viewBox="0 0 70 70" fill="none" xmlns="http://www.w3.org/2000/svg">
<path d="M25.1867 40.5167C24.2116 41.3546 24.2116 42.8641 25.1867 43.7021L25.2573 43.7628C26.0433 44.4382 27.2044 44.4393 27.9917 43.7654L32.6667 39.7633V62.7667C32.6667 63.5399 33.2935 64.1667 34.0667 64.1667H35.9334C36.7066 64.1667 37.3334 63.5399 37.3334 62.7667V39.7633L41.9784 43.7397C42.7829 44.4284 43.9695 44.4272 44.7727 43.737C45.7692 42.8807 45.7692 41.3381 44.7727 40.4817L35 32.0833L25.1867 40.5167Z" fill="white"/>
<path d="M50.6711 49.5833H49.6264V45.2025H50.6711C53.1648 45.307 55.5961 44.3688 57.4299 42.5942C59.2638 40.8196 60.3501 38.354 60.4499 35.7398C60.5496 33.1256 59.6546 30.5769 57.9618 28.6544C56.269 26.7319 53.9171 25.5931 51.4233 25.4886H49.6264L49.4174 23.6924C48.9539 20.0047 47.2274 16.6194 44.5596 14.167C41.8918 11.7147 38.4646 10.3626 34.9165 10.3626C31.3683 10.3626 27.9411 11.7147 25.2733 14.167C22.6055 16.6194 20.8791 20.0047 20.4155 23.6924L20.3737 25.4886H18.5768C16.083 25.5931 13.7311 26.7319 12.0382 28.6544C10.3454 30.5769 9.45047 33.1256 9.55022 35.7398C9.64997 38.354 10.7363 40.8196 12.5701 42.5942C14.404 44.3688 16.8352 45.307 19.329 45.2025H20.3737V49.5833H19.329C15.9783 49.5611 12.7537 48.2412 10.2752 45.8773C7.79674 43.5135 6.23928 40.2726 5.90227 36.7778C5.56527 33.283 6.47252 29.7809 8.4496 26.9449C10.4267 24.1089 13.334 22.1391 16.6127 21.4143C17.5147 17.0039 19.8322 13.0512 23.1784 10.2157C26.5247 7.38015 30.6973 5.83333 35 5.83333C39.3028 5.83333 43.4754 7.38015 46.8216 10.2157C50.1679 13.0512 52.4854 17.0039 53.3874 21.4143C56.6661 22.1391 59.5734 24.1089 61.5505 26.9449C63.5276 29.7809 64.4348 33.283 64.0978 36.7778C63.7608 40.2726 62.2033 43.5135 59.7248 45.8773C57.2463 48.2412 54.0218 49.5611 50.6711 49.5833Z" fill="white"/>
</svg>
