<svg width="14" height="19" viewBox="0 0 14 19" fill="none" xmlns="http://www.w3.org/2000/svg">
<path d="M13.483 11.2557C13.4039 11.3473 13.1052 11.7387 12.827 12.0607C11.1958 14.0858 6.94062 17.4005 4.71346 18.4123C4.37523 18.5748 3.52009 18.9189 3.0632 18.941C2.62541 18.941 2.20807 18.8274 1.80983 18.5969C1.31339 18.2749 0.915142 17.7683 0.696926 17.1701C0.55645 16.7549 0.338234 15.5127 0.338234 15.4906C0.120018 14.1316 -3.06751e-07 11.9234 -4.13418e-07 9.48314C-5.15047e-07 7.15813 0.120018 5.03989 0.298682 3.66035C0.31914 3.63825 0.537355 2.09456 0.776029 1.56579C1.21382 0.599794 2.06896 -4.05129e-06 2.9841 -4.09129e-06L3.0632 -4.09475e-06C3.6592 0.0236719 4.91258 0.623472 4.91258 0.645569C7.01973 1.65892 11.1767 4.81102 12.8475 6.90558C12.8475 6.90558 13.318 7.44382 13.5226 7.78003C13.8417 8.26302 13.9999 8.86125 13.9999 9.45947C13.9999 10.1271 13.8212 10.749 13.483 11.2557Z" fill="#806DFF"/>
</svg>
