<svg width="22" height="22" viewBox="0 0 22 22" fill="none" xmlns="http://www.w3.org/2000/svg">
<path d="M15.5466 5.65582C17.38 6.92999 18.645 8.95582 18.9016 11.2933" stroke="white" stroke-width="1.5" stroke-linecap="round" stroke-linejoin="round"/>
<path d="M3.19922 11.3392C3.43755 9.01083 4.68422 6.98499 6.49922 5.70166" stroke="white" stroke-width="1.5" stroke-linecap="round" stroke-linejoin="round"/>
<path d="M7.50745 19.195C8.57078 19.7358 9.78078 20.0383 11.0549 20.0383C12.2833 20.0383 13.4383 19.7633 14.4741 19.2592" stroke="white" stroke-width="1.5" stroke-linecap="round" stroke-linejoin="round"/>
<path d="M11.055 7.05834C12.4625 7.05834 13.6034 5.91741 13.6034 4.51C13.6034 3.1026 12.4625 1.96167 11.055 1.96167C9.64764 1.96167 8.50671 3.1026 8.50671 4.51C8.50671 5.91741 9.64764 7.05834 11.055 7.05834Z" stroke="white" stroke-width="1.5" stroke-linecap="round" stroke-linejoin="round"/>
<path d="M4.42748 18.26C5.83489 18.26 6.97582 17.1191 6.97582 15.7117C6.97582 14.3043 5.83489 13.1633 4.42748 13.1633C3.02008 13.1633 1.87915 14.3043 1.87915 15.7117C1.87915 17.1191 3.02008 18.26 4.42748 18.26Z" stroke="white" stroke-width="1.5" stroke-linecap="round" stroke-linejoin="round"/>
<path d="M17.5725 18.26C18.9799 18.26 20.1208 17.1191 20.1208 15.7117C20.1208 14.3043 18.9799 13.1633 17.5725 13.1633C16.1651 13.1633 15.0242 14.3043 15.0242 15.7117C15.0242 17.1191 16.1651 18.26 17.5725 18.26Z" stroke="white" stroke-width="1.5" stroke-linecap="round" stroke-linejoin="round"/>
</svg>
