<svg width="22" height="22" viewBox="0 0 22 22" fill="none" xmlns="http://www.w3.org/2000/svg">
<path d="M19.8643 13.1083L19.4976 17.6917C19.3601 19.0942 19.2501 20.1667 16.7659 20.1667H5.23428C2.75011 20.1667 2.64011 19.0942 2.50261 17.6917L2.13594 13.1083C2.06261 12.3475 2.30094 11.6417 2.73178 11.1008C2.74094 11.0917 2.74094 11.0917 2.75011 11.0825C3.25428 10.4683 4.01511 10.0833 4.86761 10.0833H17.1326C17.9851 10.0833 18.7368 10.4683 19.2318 11.0642C19.2409 11.0733 19.2501 11.0825 19.2501 11.0917C19.6993 11.6325 19.9468 12.3383 19.8643 13.1083Z" stroke="white" stroke-width="1.5" stroke-miterlimit="10"/>
<path d="M3.20825 10.4775V5.75667C3.20825 2.64001 3.98742 1.86084 7.10409 1.86084H8.26825C9.43242 1.86084 9.69825 2.20917 10.1383 2.79584L11.3024 4.35417C11.5958 4.73917 11.7699 4.97751 12.5491 4.97751H14.8866C18.0033 4.97751 18.7824 5.75667 18.7824 8.87334V10.5142" stroke="white" stroke-width="1.5" stroke-miterlimit="10" stroke-linecap="round" stroke-linejoin="round"/>
<path d="M8.64429 15.5833H13.356" stroke="white" stroke-width="1.5" stroke-miterlimit="10" stroke-linecap="round" stroke-linejoin="round"/>
</svg>
