<svg width="12" height="12" viewBox="0 0 12 12" fill="none" xmlns="http://www.w3.org/2000/svg">
<path d="M9.42857 6.57143H6.57143V9.42857C6.57143 9.58012 6.51122 9.72547 6.40406 9.83263C6.2969 9.9398 6.15155 10 6 10C5.84845 10 5.7031 9.9398 5.59594 9.83263C5.48878 9.72547 5.42857 9.58012 5.42857 9.42857V6.57143H2.57143C2.41988 6.57143 2.27453 6.51122 2.16737 6.40406C2.0602 6.2969 2 6.15155 2 6C2 5.84845 2.0602 5.7031 2.16737 5.59594C2.27453 5.48878 2.41988 5.42857 2.57143 5.42857H5.42857V2.57143C5.42857 2.41988 5.48878 2.27453 5.59594 2.16737C5.7031 2.0602 5.84845 2 6 2C6.15155 2 6.2969 2.0602 6.40406 2.16737C6.51122 2.27453 6.57143 2.41988 6.57143 2.57143V5.42857H9.42857C9.58012 5.42857 9.72547 5.48878 9.83263 5.59594C9.9398 5.7031 10 5.84845 10 6C10 6.15155 9.9398 6.2969 9.83263 6.40406C9.72547 6.51122 9.58012 6.57143 9.42857 6.57143Z" fill="white"/>
</svg>
