<svg width="36" height="36" viewBox="0 0 36 36" fill="none" xmlns="http://www.w3.org/2000/svg">
<path d="M27.9149 9.27C27.7141 9.27 27.5399 9.09579 27.5399 8.895V6.63C27.5399 5.32023 26.4735 4.23 25.1399 4.23H5.74486C4.43509 4.23 3.34486 5.29636 3.34486 6.63V8.895C3.34486 9.09579 3.17065 9.27 2.96986 9.27C2.78211 9.27 2.60986 9.10894 2.60986 8.895V6.63C2.60986 4.89922 4.02908 3.48 5.75986 3.48H25.1399C26.8725 3.48 28.2899 4.88609 28.2899 6.63V8.895C28.2899 9.09579 28.1157 9.27 27.9149 9.27Z" fill="white" stroke="white" stroke-width="1.5"/>
<path d="M15.4502 27.525C15.2494 27.525 15.0752 27.3508 15.0752 27.15V4.98C15.0752 4.77922 15.2494 4.605 15.4502 4.605C15.651 4.605 15.8252 4.77922 15.8252 4.98V27.15C15.8252 27.3593 15.6575 27.525 15.4502 27.525Z" fill="white" stroke="white" stroke-width="1.5"/>
<path d="M18.7201 27.525H10.3501C10.1493 27.525 9.9751 27.3508 9.9751 27.15C9.9751 26.9492 10.1493 26.775 10.3501 26.775H18.7201C18.9209 26.775 19.0951 26.9492 19.0951 27.15C19.0951 27.3508 18.9209 27.525 18.7201 27.525Z" fill="white" stroke="white" stroke-width="1.5"/>
<path d="M33.015 19.05C32.8142 19.05 32.64 18.8758 32.64 18.675V17.475C32.64 16.5958 31.9142 15.87 31.035 15.87H20.52C20.3192 15.87 20.145 15.6958 20.145 15.495C20.145 15.2942 20.3192 15.12 20.52 15.12H31.035C32.3308 15.12 33.39 16.1792 33.39 17.475V18.675C33.39 18.8908 33.2308 19.05 33.015 19.05Z" fill="white" stroke="white" stroke-width="1.5"/>
<path d="M24.1201 33.27C23.5051 33.27 22.9951 32.76 22.9951 32.145V16.305C22.9951 15.69 23.5051 15.18 24.1201 15.18C24.7351 15.18 25.2451 15.69 25.2451 16.305V32.145C25.2451 32.76 24.7351 33.27 24.1201 33.27Z" fill="white"/>
<path d="M27.3302 33.27H20.9102C20.2952 33.27 19.7852 32.76 19.7852 32.145C19.7852 31.53 20.2952 31.02 20.9102 31.02H27.3302C27.9452 31.02 28.4552 31.53 28.4552 32.145C28.4552 32.76 27.9452 33.27 27.3302 33.27Z" fill="white"/>
</svg>
