<svg width="44" height="44" viewBox="0 0 44 44" fill="none" xmlns="http://www.w3.org/2000/svg">
<path d="M22.0001 28.4167C26.0517 28.4167 29.3334 25.135 29.3334 21.0833V11C29.3334 6.94832 26.0517 3.66666 22.0001 3.66666C17.9484 3.66666 14.6667 6.94832 14.6667 11V21.0833C14.6667 25.135 17.9484 28.4167 22.0001 28.4167Z" stroke="white" stroke-width="2.75" stroke-linecap="round" stroke-linejoin="round"/>
<path d="M7.9751 17.6917V20.8083C7.9751 28.545 14.2634 34.8333 22.0001 34.8333C29.7368 34.8333 36.0251 28.545 36.0251 20.8083V17.6917" stroke="white" stroke-width="2.75" stroke-linecap="round" stroke-linejoin="round"/>
<path d="M19.4519 11.7883C21.1019 11.1833 22.8986 11.1833 24.5486 11.7883" stroke="white" stroke-width="2.75" stroke-linecap="round" stroke-linejoin="round"/>
<path d="M20.5332 15.675C21.5049 15.4183 22.5132 15.4183 23.4849 15.675" stroke="white" stroke-width="2.75" stroke-linecap="round" stroke-linejoin="round"/>
<path d="M22 34.8333V40.3333" stroke="white" stroke-width="2.75" stroke-linecap="round" stroke-linejoin="round"/>
</svg>
