<svg width="242" height="333" viewBox="0 0 242 333" fill="none" xmlns="http://www.w3.org/2000/svg">
<path fill-rule="evenodd" clip-rule="evenodd" d="M51.8776 240.466C67.6216 242.372 83.1328 242.265 98.8375 242.085C92.8383 233.185 90.8709 224.004 95.265 214.097C94.8781 213.988 94.759 213.923 94.6421 213.925C85.637 213.958 76.632 213.977 67.629 214.084C66.9487 214.092 66.0708 214.587 65.6392 215.137C64.1713 217 62.8267 218.963 61.497 220.931C57.4441 226.924 54.5944 233.505 51.8776 240.466ZM117.73 202.587C102.849 202.031 95.1215 213.89 95.3458 224.979C95.6296 238.959 104.561 247.405 117.676 247.451C130.761 247.495 139.781 239.108 140.156 225.128C140.451 214.121 132.799 202.005 117.73 202.587ZM189.841 238.298C189.841 237.591 189.895 237.39 189.833 237.238C186.014 227.637 181.039 218.733 173.928 211.149C173.429 210.615 172.403 210.291 171.646 210.329C161.41 210.849 151.176 211.449 140.943 212.039C140.481 212.067 140.023 212.177 139.336 212.283C144.687 222.561 143.082 232.194 136.849 241.967C154.881 240.718 172.371 239.508 189.841 238.298ZM170.557 208.059C170.367 207.611 170.342 207.475 170.265 207.391C170.01 207.115 169.743 206.852 169.47 206.595C161.515 199.126 152.377 193.653 142.11 189.931C132.803 186.555 123.225 185.15 113.515 186.732C96.6978 189.473 82.3866 197.296 70.5159 209.538C69.9717 210.098 69.4689 210.701 68.7536 211.5C69.3488 211.605 69.6347 211.704 69.9196 211.701C78.4262 211.629 86.9349 211.577 95.4372 211.41C96.1292 211.395 96.9178 210.685 97.4663 210.11C98.9289 208.586 100.095 206.722 101.718 205.412C107.145 201.031 113.483 199.521 120.361 200.156C126.986 200.767 132.636 203.318 136.961 208.549C137.461 209.152 138.487 209.653 139.259 209.642C143.698 209.57 148.137 209.371 152.571 209.134C158.493 208.819 164.408 208.43 170.557 208.059ZM192.552 234.643C200.813 254.548 203.963 275.073 205.07 296.216C206.105 295.946 206.894 295.81 207.632 295.538C211.205 294.221 214.781 292.908 218.327 291.518C225.008 288.901 230.438 284.589 234.929 279.053C239.596 273.301 240.182 267.124 236.854 260.509C234.499 255.829 231.119 252.018 227.024 248.848C218.312 242.104 208.315 238.134 197.703 235.568C196.152 235.195 194.557 235 192.552 234.643ZM38.0468 298.166C38.5942 275.999 42.2039 254.924 50.4054 234.623C49.791 234.623 49.3606 234.571 48.946 234.631C37.8746 236.226 27.6472 240.206 18.2371 246.125C11.8468 250.146 6.50459 255.347 3.76331 262.635C1.18466 269.5 2.16786 275.763 7.33047 281.192C12.154 286.269 18.1021 289.717 24.3436 292.632C28.7399 294.687 33.3455 296.287 38.0468 298.166ZM117.797 305.923C123.05 305.923 128.329 306.251 133.554 305.857C146.529 304.877 159.507 303.8 172.431 302.311C181.548 301.262 190.581 299.467 199.657 298.03C201.151 297.794 201.743 297.153 201.563 295.535C200.578 286.714 199.963 277.842 198.689 269.063C197.344 259.771 194.953 250.683 191.686 241.85C191.295 240.792 190.839 240.292 189.532 240.383C171.495 241.647 153.453 242.829 135.415 244.073C134.591 244.132 133.741 244.495 132.999 244.892C130.689 246.13 128.553 247.801 126.124 248.681C118.242 251.539 110.777 250.478 103.773 245.791C102.617 245.016 101.027 244.529 99.6347 244.525C83.8641 244.482 68.0882 244.748 52.375 243.002C51.1824 242.869 50.7402 243.333 50.3937 244.4C44.908 261.232 41.9201 278.479 41.7755 296.196C41.7426 300.125 41.699 299.376 44.8431 300.132C57.5355 303.185 70.4946 304.583 83.4634 305.486C94.8749 306.282 117.794 306.13 117.797 305.923ZM111.054 308.598C95.2448 309.094 77.697 307.624 60.1492 305.435C45.7275 303.637 32.189 299.313 19.3521 292.782C13.9961 290.058 8.73035 286.99 4.6955 282.195C-0.507508 276.01 -1.08362 269.205 1.4844 261.965C4.09706 254.597 9.33514 249.181 15.701 244.969C26.0124 238.145 37.3198 233.733 49.6444 232.173C51.1994 231.977 52.0062 231.362 52.6801 229.946C65.0333 203.948 85.4585 188.209 113.721 183.217C123.389 181.51 133.151 183.093 142.528 186.447C164.575 194.335 180.557 208.832 190.385 230.072C191.081 231.576 191.952 232.168 193.552 232.423C206.118 234.41 217.703 238.948 227.905 246.574C231.015 248.899 233.927 251.781 236.148 254.957C244.41 266.766 242.946 275.822 233.338 284.994C229.255 288.891 224.505 291.719 219.345 293.929C209.999 297.931 200.358 301.077 190.342 302.74C182.767 303.999 175.079 304.647 167.419 305.325C154.022 306.514 140.615 307.615 127.196 308.545C122.463 308.873 117.688 308.598 111.054 308.598Z" fill="#453C3E"/>
<path fill-rule="evenodd" clip-rule="evenodd" d="M119.639 162.769C121.65 159.151 123.484 155.738 125.427 152.386C128.185 147.624 131.129 142.965 133.768 138.139C134.587 136.64 135.395 135.96 137.064 136.091C143.43 136.592 149.658 135.739 155.836 134.211C173.544 129.831 186.465 119.433 194.133 102.956C199.677 91.0415 200.174 78.2439 198.631 65.4091C197.381 55.0127 192.959 45.7568 187.164 37.1439C180.131 26.6932 171.466 17.9294 159.958 12.4979C142.444 4.23155 124.029 1.71559 104.897 4.76405C91.3868 6.9154 78.6371 10.8929 67.8197 19.8214C55.9671 29.6056 47.5838 41.7187 42.6986 56.2425C39.4131 66.0033 39.5247 76.0596 40.6174 86.1478C41.5475 94.7351 44.0219 102.854 48.8859 110.033C60.6769 127.441 77.5072 135.521 98.2172 136.205C99.9635 136.264 101.717 136.256 103.449 136.444C104.029 136.508 104.77 136.958 105.067 137.453C107.87 142.114 110.617 146.81 113.328 151.525C115.438 155.194 117.473 158.903 119.639 162.769ZM202.426 75.5494C202.726 84.5672 201.837 93.4692 198.336 101.857C190.919 119.633 177.943 131.351 159.415 136.802C152.595 138.809 145.633 139.934 138.505 139.772C137.319 139.746 136.677 140.181 136.134 141.14C131.392 149.521 126.647 157.898 121.835 166.24C121.353 167.076 120.351 168.272 119.715 168.2C118.87 168.104 117.91 167.065 117.406 166.194C112.522 157.752 107.747 149.245 102.852 140.811C102.526 140.251 101.462 139.829 100.744 139.832C90.9712 139.884 81.4719 138.205 72.6007 134.211C52.7847 125.289 40.6801 110.124 37.4711 88.4458C35.9342 78.0621 35.7949 67.6051 38.7849 57.3638C43.0834 42.6339 51.2913 30.4113 62.3744 19.8767C73.1683 9.61631 86.3156 4.66205 100.568 2.11423C106.769 1.0056 113.092 -0.00950622 119.359 6.10351e-05C125.808 0.00961303 132.282 1.14481 138.701 2.09082C148.966 3.60548 158.724 6.97387 167.449 12.5011C177.561 18.9073 185.453 27.7083 191.771 37.9145C197.414 47.0355 201.329 56.7601 202.389 67.4903C202.652 70.1529 202.426 72.8623 202.426 75.5494Z" fill="white"/>
<path fill-rule="evenodd" clip-rule="evenodd" d="M168.246 263.123C168.017 261.709 167.979 260.042 167.459 258.542C166.304 255.203 162.316 254.366 159.899 256.945C159.039 257.861 158.159 259.149 158.077 260.322C157.907 262.714 158.009 265.198 158.494 267.54C159.006 270.009 160.662 271.014 162.973 270.986C165.341 270.956 166.969 269.796 167.631 267.404C167.99 266.098 168.031 264.704 168.246 263.123ZM86.3822 263.047C86.1527 261.626 86.1123 260.024 85.6169 258.579C84.4435 255.152 80.365 254.344 77.9341 257.044C77.1295 257.938 76.2866 259.161 76.2175 260.277C76.0645 262.675 76.1389 265.153 76.6151 267.5C77.1157 269.974 78.7675 270.998 81.0644 270.986C83.4411 270.971 85.0919 269.827 85.7519 267.444C86.1314 266.081 86.1675 264.623 86.3822 263.047ZM76.4035 299.819C79.5083 299.993 82.0912 298.585 84.5966 297.034C87.0583 295.509 88.9269 293.438 88.6654 290.362C88.3954 287.181 86.7266 284.828 83.7441 283.368C80.8859 281.967 77.8969 281.482 74.8251 281.873C70.7881 282.386 66.0868 285.714 66.3153 290.544C66.5364 295.212 71.4099 299.778 76.4035 299.819ZM163.665 297.978C167.884 298.16 170.571 295.863 172.697 292.588C175.105 288.876 174.166 284.722 170.612 282.076C165.813 278.505 158.603 279.692 154.657 282.729C151.156 285.42 150.598 290.234 153.566 293.299C156.29 296.108 159.712 297.709 163.665 297.978ZM83.4624 305.486C70.4937 304.583 57.5345 303.185 44.8422 300.132C41.6981 299.376 41.7416 300.125 41.7746 296.196C41.9191 278.479 44.907 261.232 50.3928 244.4C50.7393 243.333 51.1815 242.869 52.374 243.002C68.0872 244.747 83.8631 244.482 99.6337 244.525C101.026 244.529 102.616 245.016 103.772 245.791C110.776 250.478 118.241 251.539 126.123 248.681C128.552 247.801 130.688 246.13 132.998 244.892C133.74 244.495 134.59 244.132 135.414 244.073C153.452 242.829 171.494 241.647 189.531 240.383C190.838 240.292 191.294 240.792 191.685 241.85C194.952 250.683 197.343 259.771 198.688 269.063C199.962 277.842 200.577 286.714 201.562 295.535C201.742 297.153 201.15 297.794 199.656 298.03C190.581 299.467 181.547 301.262 172.43 302.311C159.506 303.8 146.528 304.877 133.553 305.857C128.328 306.251 94.8739 306.282 83.4624 305.486Z" fill="#FFEB8E"/>
<path fill-rule="evenodd" clip-rule="evenodd" d="M38.0473 298.166C33.3459 296.287 28.7403 294.687 24.3441 292.632C18.1026 289.717 12.1544 286.269 7.33091 281.192C2.16829 275.763 1.18509 269.5 3.76375 262.636C6.50502 255.347 11.8473 250.146 18.2376 246.125C27.6476 240.206 37.8751 236.226 48.9465 234.631C49.361 234.571 49.7915 234.623 50.4058 234.623C42.2043 254.924 38.5947 275.999 38.0473 298.166Z" fill="white"/>
<path fill-rule="evenodd" clip-rule="evenodd" d="M192.55 234.644C194.555 235 196.15 235.195 197.701 235.568C208.313 238.134 218.31 242.104 227.022 248.849C231.117 252.018 234.497 255.829 236.852 260.509C240.18 267.124 239.594 273.301 234.927 279.054C230.436 284.589 225.007 288.902 218.325 291.518C214.779 292.908 211.203 294.222 207.63 295.538C206.892 295.811 206.104 295.947 205.068 296.217C203.961 275.073 200.811 254.548 192.55 234.644Z" fill="white"/>
<path fill-rule="evenodd" clip-rule="evenodd" d="M170.557 208.059C164.408 208.43 158.493 208.819 152.572 209.134C148.137 209.372 143.698 209.57 139.26 209.643C138.487 209.653 137.461 209.153 136.962 208.549C132.637 203.318 126.986 200.767 120.361 200.156C113.484 199.521 107.146 201.031 101.718 205.412C100.095 206.722 98.9292 208.586 97.4666 210.11C96.9181 210.685 96.1294 211.395 95.4375 211.41C86.9352 211.577 78.4265 211.629 69.9199 211.701C69.635 211.705 69.3491 211.605 68.7539 211.501C69.4692 210.701 69.972 210.099 70.5162 209.538C82.3869 197.296 96.6981 189.474 113.516 186.732C123.225 185.15 132.803 186.555 142.11 189.931C152.377 193.653 161.515 199.126 169.47 206.595C169.743 206.852 170.01 207.115 170.265 207.391C170.343 207.475 170.367 207.611 170.557 208.059Z" fill="#FFEB8E"/>
<path fill-rule="evenodd" clip-rule="evenodd" d="M189.843 238.298C172.374 239.508 154.883 240.718 136.851 241.967C143.084 232.194 144.689 222.561 139.338 212.283C140.025 212.178 140.483 212.067 140.945 212.039C151.178 211.449 161.412 210.849 171.648 210.329C172.406 210.291 173.432 210.615 173.93 211.149C181.041 218.733 186.016 227.637 189.836 237.238C189.897 237.39 189.843 237.591 189.843 238.298Z" fill="white"/>
<path fill-rule="evenodd" clip-rule="evenodd" d="M117.896 236.408C124.132 236.439 129.402 231.314 129.489 225.254C129.589 218.216 123.981 213.972 118.404 213.533C110.879 212.938 106.36 219.609 106.447 226.207C106.516 231.447 111.984 236.38 117.896 236.408ZM117.729 202.587C132.798 202.005 140.45 214.121 140.156 225.128C139.781 239.108 130.761 247.495 117.675 247.451C104.561 247.405 95.6288 238.959 95.345 224.979C95.1208 213.89 102.848 202.031 117.729 202.587Z" fill="#8CBCAE"/>
<path fill-rule="evenodd" clip-rule="evenodd" d="M51.8784 240.466C54.5952 233.505 57.4449 226.924 61.4978 220.931C62.8276 218.963 64.1722 217 65.6401 215.137C66.0716 214.587 66.9496 214.092 67.6298 214.084C76.6328 213.977 85.6379 213.958 94.643 213.925C94.7599 213.923 94.8789 213.988 95.2658 214.097C90.8717 224.004 92.8392 233.185 98.8383 242.085C83.1336 242.265 67.6224 242.372 51.8784 240.466Z" fill="white"/>
<path fill-rule="evenodd" clip-rule="evenodd" d="M119.639 162.769C117.472 158.903 115.437 155.194 113.327 151.525C110.617 146.81 107.869 142.114 105.066 137.453C104.769 136.958 104.029 136.508 103.448 136.444C101.717 136.256 99.9629 136.264 98.2165 136.205C77.5066 135.521 60.6763 127.442 48.8853 110.033C44.0213 102.854 41.5468 94.7354 40.6168 86.148C39.5241 76.0598 39.4125 66.0035 42.698 56.2427C47.5832 41.719 55.9664 29.6059 67.8191 19.8217C78.6365 10.8931 91.3862 6.91566 104.896 4.76431C124.029 1.71585 142.444 4.23181 159.957 12.4982C171.466 17.9297 180.131 26.6935 187.163 37.1442C192.958 45.757 197.381 55.0129 198.631 65.4094C200.173 78.2442 199.677 91.0417 194.133 102.956C186.465 119.433 173.544 129.831 155.835 134.211C149.658 135.74 143.429 136.592 137.063 136.092C135.394 135.96 134.587 136.64 133.767 138.139C131.129 142.965 128.185 147.624 125.426 152.386C123.483 155.739 121.65 159.152 119.639 162.769Z" fill="#040015"/>
<path fill-rule="evenodd" clip-rule="evenodd" d="M108.163 290.61C117.257 292.102 126.011 291.89 134.905 290.04C130.913 284.277 125.27 283.005 119.091 283.519C114.403 283.905 110.544 285.989 108.163 290.61ZM106.944 288.475C110.381 283.513 114.962 281.521 120.461 281.418C125.882 281.317 130.881 282.407 134.956 286.501C134.147 284.091 133.383 281.691 132.1 279.608C129.22 274.934 122.519 272.462 117.679 274.019C112.099 275.815 107.429 281.89 106.944 288.475ZM121.031 295.033C115.172 294.619 111.026 294.389 106.502 293.861C105.591 293.757 104.611 293.504 103.859 293.015C103.283 292.643 102.575 291.713 102.678 291.172C103.79 285.255 105.062 279.338 109.625 274.924C119.88 265.007 131.953 271.051 136.114 279.815C137.649 283.048 138.468 286.642 139.432 290.121C139.953 291.995 139.342 292.825 137.406 293.111C131.672 293.959 126.889 294.567 121.031 295.033Z" fill="black"/>
<path fill-rule="evenodd" clip-rule="evenodd" d="M163.664 297.978C159.711 297.709 156.288 296.108 153.565 293.299C150.596 290.234 151.154 285.42 154.656 282.729C158.601 279.692 165.812 278.505 170.611 282.076C174.165 284.722 175.104 288.876 172.696 292.588C170.57 295.864 167.883 298.161 163.664 297.978Z" fill="#FD596E"/>
<path fill-rule="evenodd" clip-rule="evenodd" d="M76.4053 299.819C71.4117 299.778 66.5382 295.212 66.3171 290.544C66.0885 285.714 70.7898 282.386 74.8268 281.873C77.8987 281.482 80.8876 281.967 83.7458 283.368C86.7284 284.828 88.3972 287.182 88.6671 290.362C88.9286 293.438 87.06 295.51 84.5983 297.034C82.093 298.585 79.5101 299.993 76.4053 299.819Z" fill="#FD596E"/>
<path fill-rule="evenodd" clip-rule="evenodd" d="M86.3852 263.047C86.1705 264.623 86.1344 266.082 85.7549 267.444C85.0949 269.827 83.4441 270.971 81.0674 270.986C78.7705 270.999 77.1187 269.974 76.6181 267.501C76.1419 265.154 76.0675 262.675 76.2205 260.277C76.2896 259.161 77.1325 257.939 77.9371 257.045C80.368 254.344 84.4465 255.153 85.6199 258.579C86.1153 260.024 86.1557 261.626 86.3852 263.047Z" fill="black"/>
<path fill-rule="evenodd" clip-rule="evenodd" d="M168.246 263.124C168.03 264.704 167.989 266.099 167.63 267.404C166.968 269.797 165.341 270.956 162.972 270.986C160.662 271.015 159.006 270.009 158.493 267.54C158.009 265.198 157.907 262.714 158.077 260.323C158.158 259.149 159.039 257.861 159.898 256.945C162.316 254.366 166.304 255.204 167.458 258.542C167.978 260.042 168.016 261.709 168.246 263.124Z" fill="black"/>
<path fill-rule="evenodd" clip-rule="evenodd" d="M117.874 234.014C122.779 234.034 127.045 229.989 127.081 225.281C127.123 219.962 123.02 215.957 117.479 215.908C112.537 215.863 108.9 220.114 108.854 225.987C108.824 230.054 113.251 233.995 117.874 234.014ZM117.898 236.408C111.986 236.38 106.518 231.447 106.449 226.207C106.362 219.609 110.88 212.938 118.406 213.533C123.983 213.972 129.591 218.216 129.491 225.254C129.404 231.314 124.134 236.439 117.898 236.408Z" fill="#231F20"/>
<path fill-rule="evenodd" clip-rule="evenodd" d="M106.943 288.475C107.429 281.89 112.098 275.815 117.679 274.019C122.518 272.462 129.22 274.934 132.099 279.608C133.382 281.691 134.147 284.091 134.956 286.501C130.88 282.407 125.881 281.317 120.46 281.418C114.962 281.521 110.381 283.513 106.943 288.475Z" fill="#ED2A49"/>
<path fill-rule="evenodd" clip-rule="evenodd" d="M108.163 290.61C110.544 285.989 114.403 283.905 119.09 283.519C125.27 283.005 130.913 284.277 134.905 290.04C126.011 291.89 117.257 292.102 108.163 290.61Z" fill="#FD596E"/>
<path fill-rule="evenodd" clip-rule="evenodd" d="M117.872 234.014C113.248 233.995 108.821 230.054 108.852 225.987C108.897 220.114 112.535 215.863 117.476 215.908C123.017 215.957 127.12 219.962 127.079 225.281C127.043 229.989 122.776 234.034 117.872 234.014Z" fill="#FFEB8E"/>
<path fill-rule="evenodd" clip-rule="evenodd" d="M57.521 321.855C57.6985 326.659 59.3736 329.008 62.2201 329.68C63.8411 330.063 65.3101 329.798 66.0435 328.281C67.2892 325.7 68.6264 323.085 69.3194 320.331C70.5067 315.612 71.2911 310.783 72.1159 305.979C72.5645 303.37 73.0375 300.707 72.9875 298.079C72.9036 293.6 69.1228 291.675 65.5641 294.273C64.2833 295.212 63.0886 296.768 62.6549 298.274C60.9967 304.045 59.5767 309.89 58.2533 315.751C57.7187 318.114 57.6634 320.585 57.521 321.855ZM57.6411 295.858C57.6166 295.347 57.6613 294.823 57.5603 294.329C56.9002 291.122 54.1823 288.091 50.2304 290.756C48.6604 291.817 47.6188 293.208 47.1681 294.897C45.5939 300.814 44.0399 306.742 42.775 312.729C42.2064 315.415 42.2074 318.251 42.1968 321.021C42.1894 323.485 44.1749 325.687 46.5335 326.322C48.2427 326.783 49.8722 326.592 50.6492 324.9C51.9863 321.986 53.3766 319.031 54.1717 315.946C55.2686 311.672 55.8384 307.261 56.6334 302.91C57.0597 300.575 57.7304 295.875 57.6411 295.858ZM41.8546 293.265C41.8322 292.755 41.8726 292.232 41.7748 291.733C41.1328 288.473 38.3947 285.534 34.4545 288.164C32.7166 289.323 31.727 290.918 31.2253 292.79C29.7574 298.269 28.2438 303.745 27.0959 309.296C26.4836 312.264 26.4252 315.38 26.4188 318.433C26.4135 320.86 27.9218 322.555 30.1156 323.496C32.4062 324.481 33.8964 324.207 35.0497 322.027C36.4113 319.447 37.5805 316.678 38.2778 313.857C39.3747 309.402 40.0082 304.836 40.8395 300.315C41.2678 297.982 41.946 293.283 41.8546 293.265ZM44.9955 291.222C52.2106 283.332 58.8645 286.423 60.8979 293.978C61.8598 293.19 62.7867 292.369 63.7795 291.637C69.5766 287.354 75.7256 291.586 76.07 297.627C76.2528 300.853 75.5938 304.17 75.0071 307.391C73.9846 313.026 72.8334 318.649 71.4973 324.221C71.0456 326.107 70.0815 327.964 68.9771 329.578C65.9935 333.949 60.4249 334.154 56.981 330.068C55.9021 328.79 55.1708 327.224 54.1621 325.599C52.2478 328.47 49.7903 330.632 45.7374 329.368C42.1415 328.251 40.1539 325.715 38.9453 322.121C38.4936 322.745 38.1673 323.188 37.8473 323.637C34.717 328.031 29.2993 328.213 25.662 324.159C23.23 321.45 22.6709 318.212 23.2438 314.911C24.4077 308.205 25.8257 301.542 27.352 294.907C27.8761 292.631 28.8104 290.374 29.9573 288.331C31.2572 286.023 33.5202 284.606 36.119 284.137C39.8488 283.468 43.0121 285.602 44.4204 289.439C44.6288 290.008 44.7935 290.593 44.9955 291.222Z" fill="#332F30"/>
<path fill-rule="evenodd" clip-rule="evenodd" d="M40.8401 300.315C40.0089 304.836 39.3754 309.402 38.2785 313.857C37.5812 316.678 36.412 319.446 35.0504 322.027C33.8971 324.207 32.4069 324.48 30.1163 323.496C27.9224 322.554 26.4141 320.86 26.4194 318.432C26.4258 315.38 26.4843 312.264 27.0965 309.296C28.2445 303.745 29.7581 298.269 31.226 292.789C31.7277 290.918 32.7173 289.323 34.4551 288.164C38.3954 285.534 41.1335 288.473 41.7755 291.733C41.8733 292.231 41.8329 292.754 41.8552 293.265C41.9466 293.283 41.2685 297.982 40.8401 300.315Z" fill="#FFEB8E"/>
<path fill-rule="evenodd" clip-rule="evenodd" d="M56.6344 302.91C55.8393 307.261 55.2696 311.672 54.1726 315.946C53.3776 319.031 51.9873 321.986 50.6501 324.9C49.8731 326.592 48.2437 326.783 46.5345 326.322C44.1759 325.687 42.1903 323.485 42.1978 321.021C42.2084 318.251 42.2073 315.415 42.776 312.729C44.0409 306.741 45.5949 300.814 47.169 294.897C47.6197 293.208 48.6614 291.817 50.2313 290.756C54.1833 288.091 56.9012 291.122 57.5612 294.329C57.6622 294.823 57.6176 295.347 57.642 295.858C57.7313 295.875 57.0606 300.575 56.6344 302.91Z" fill="#FFEB8E"/>
<path fill-rule="evenodd" clip-rule="evenodd" d="M57.522 321.855C57.6644 320.585 57.7197 318.114 58.2543 315.751C59.5776 309.89 60.9977 304.045 62.6559 298.274C63.0895 296.768 64.2843 295.212 65.5651 294.273C69.1238 291.675 72.9046 293.599 72.9885 298.079C73.0385 300.707 72.5655 303.37 72.1169 305.979C71.2921 310.783 70.5077 315.612 69.3204 320.331C68.6274 323.085 67.2902 325.7 66.0445 328.281C65.3111 329.798 63.8421 330.063 62.2211 329.68C59.3746 329.008 57.6995 326.659 57.522 321.855Z" fill="#FFEB8E"/>
<path fill-rule="evenodd" clip-rule="evenodd" d="M31.4319 314.48C30.1032 314.353 29.3804 314.748 29.4686 316.258C29.6026 318.539 30.6134 320.087 32.0909 319.99C33.0698 319.927 34.9406 317.428 34.6876 315.982C34.3825 314.214 32.6627 314.673 31.4319 314.48Z" fill="#FFD200"/>
<path fill-rule="evenodd" clip-rule="evenodd" d="M47.2918 317.202C45.9887 317.054 45.2181 317.389 45.301 318.923C45.4243 321.191 46.4309 322.752 47.8998 322.68C48.8926 322.63 51.0695 319.638 50.4902 318.575C50.0065 317.688 47.363 317.054 47.2918 317.202Z" fill="#FFD200"/>
<path fill-rule="evenodd" clip-rule="evenodd" d="M60.4552 322.541C60.2883 321.15 60.8102 320.457 62.2558 320.581C62.8723 320.634 63.5079 320.591 64.1042 320.727C65.8686 321.138 66.0515 321.517 65.4052 323.177C65.2213 323.652 65.0991 324.201 64.7738 324.555C64.2413 325.132 63.4686 326.062 62.9711 325.962C62.1984 325.812 61.465 325.004 60.9218 324.314C60.5742 323.872 60.5976 323.139 60.4552 322.541Z" fill="#FFD200"/>
<path fill-rule="evenodd" clip-rule="evenodd" d="M181.857 315.751C180.534 309.89 179.113 304.045 177.456 298.274C177.022 296.768 175.826 295.212 174.546 294.273C170.988 291.675 167.207 293.6 167.123 298.079C167.073 300.707 167.546 303.37 167.995 305.979C168.82 310.783 169.605 315.612 170.79 320.331C171.484 323.085 172.822 325.7 174.066 328.281C174.802 329.798 176.27 330.063 177.891 329.68C180.737 329.008 182.412 326.659 182.591 321.855C182.447 320.585 182.392 318.114 181.857 315.751ZM183.477 302.91C184.272 307.261 184.843 311.672 185.939 315.946C186.734 319.031 188.125 321.986 189.463 324.9C190.239 326.592 191.868 326.783 193.577 326.322C195.936 325.687 197.922 323.485 197.914 321.021C197.903 318.251 197.904 315.415 197.337 312.729C196.071 306.742 194.517 300.814 192.943 294.897C192.492 293.208 191.45 291.817 189.88 290.756C185.928 288.091 183.211 291.122 182.55 294.329C182.449 294.823 182.494 295.347 182.47 295.858C182.38 295.875 183.051 300.575 183.477 302.91ZM199.271 300.315C200.101 304.836 200.736 309.402 201.833 313.857C202.53 316.678 203.699 319.447 205.061 322.027C206.213 324.207 207.704 324.481 209.996 323.496C212.188 322.555 213.697 320.86 213.692 318.433C213.686 315.38 213.627 312.264 213.015 309.296C211.867 303.745 210.353 298.269 208.885 292.79C208.384 290.918 207.394 289.323 205.656 288.164C201.716 285.534 198.979 288.473 198.335 291.733C198.237 292.232 198.279 292.755 198.256 293.265C198.165 293.283 198.843 297.982 199.271 300.315ZM195.69 289.439C197.099 285.602 200.262 283.468 203.992 284.137C206.591 284.606 208.855 286.023 210.153 288.331C211.3 290.374 212.235 292.631 212.76 294.907C214.285 301.542 215.703 308.205 216.868 314.911C217.44 318.212 216.881 321.45 214.449 324.159C210.811 328.213 205.394 328.031 202.263 323.637C201.943 323.188 201.617 322.745 201.164 322.121C199.957 325.715 197.969 328.251 194.374 329.368C190.32 330.632 187.864 328.47 185.949 325.599C184.94 327.224 184.208 328.79 183.131 330.068C179.686 334.154 174.116 333.949 171.133 329.578C170.028 327.964 169.065 326.107 168.612 324.221C167.277 318.649 166.126 313.026 165.104 307.391C164.517 304.17 163.859 300.853 164.042 297.627C164.385 291.586 170.535 287.354 176.331 291.637C177.324 292.369 178.251 293.19 179.213 293.978C181.246 286.423 187.901 283.332 195.115 291.222C195.317 290.593 195.482 290.008 195.69 289.439Z" fill="#332F30"/>
<path fill-rule="evenodd" clip-rule="evenodd" d="M198.257 293.265C198.28 292.754 198.238 292.231 198.336 291.733C198.98 288.473 201.717 285.534 205.657 288.164C207.395 289.323 208.385 290.918 208.887 292.789C210.354 298.269 211.868 303.745 213.016 309.296C213.628 312.264 213.687 315.38 213.693 318.432C213.698 320.86 212.189 322.554 209.997 323.496C207.706 324.48 206.214 324.207 205.062 322.027C203.701 319.446 202.531 316.678 201.834 313.857C200.737 309.402 200.103 304.836 199.272 300.315C198.844 297.982 198.166 293.283 198.257 293.265Z" fill="#FFEB8E"/>
<path fill-rule="evenodd" clip-rule="evenodd" d="M182.468 295.858C182.492 295.347 182.448 294.823 182.549 294.329C183.209 291.122 185.927 288.091 189.879 290.756C191.449 291.817 192.49 293.208 192.941 294.897C194.515 300.814 196.069 306.741 197.335 312.729C197.903 315.415 197.902 318.251 197.912 321.021C197.921 323.485 195.934 325.687 193.576 326.322C191.866 326.783 190.237 326.592 189.461 324.9C188.124 321.986 186.732 319.031 185.937 315.946C184.841 311.672 184.271 307.261 183.476 302.91C183.049 300.575 182.379 295.875 182.468 295.858Z" fill="#FFEB8E"/>
<path fill-rule="evenodd" clip-rule="evenodd" d="M177.891 329.68C176.27 330.063 174.802 329.798 174.066 328.281C172.822 325.7 171.484 323.085 170.79 320.331C169.605 315.612 168.82 310.783 167.995 305.979C167.546 303.37 167.073 300.707 167.123 298.079C167.207 293.599 170.988 291.675 174.546 294.273C175.826 295.212 177.022 296.768 177.456 298.274C179.113 304.045 180.534 309.89 181.857 315.751C182.392 318.114 182.447 320.585 182.591 321.855C182.412 326.659 180.737 329.008 177.891 329.68Z" fill="#FFEB8E"/>
<path fill-rule="evenodd" clip-rule="evenodd" d="M208.68 314.48C207.449 314.673 205.73 314.214 205.425 315.982C205.172 317.428 207.042 319.927 208.022 319.99C209.499 320.087 210.51 318.539 210.644 316.258C210.731 314.748 210.009 314.353 208.68 314.48Z" fill="#FFD200"/>
<path fill-rule="evenodd" clip-rule="evenodd" d="M189.621 318.575C189.042 319.638 191.22 322.63 192.212 322.68C193.681 322.752 194.687 321.191 194.812 318.923C194.893 317.389 194.122 317.054 192.82 317.202C192.748 317.054 190.105 317.688 189.621 318.575Z" fill="#FFD200"/>
<path fill-rule="evenodd" clip-rule="evenodd" d="M179.656 322.541C179.822 321.15 179.301 320.457 177.856 320.581C177.24 320.634 176.603 320.591 176.006 320.727C174.241 321.138 174.06 321.517 174.707 323.177C174.89 323.652 175.012 324.201 175.338 324.555C175.87 325.132 176.641 326.062 177.14 325.962C177.912 325.812 178.646 325.004 179.189 324.314C179.537 323.872 179.513 323.139 179.656 322.541Z" fill="#FFD200"/>
<path d="M65.082 101.172V79.3366C65.082 78.1897 65.9696 77.3011 67.1175 77.3011H67.1547C67.1547 77.3011 67.1547 77.3011 67.2291 77.3011H79.2189C80.2935 77.3011 81.2544 78.1897 81.2544 79.3366C81.2544 80.4846 80.2935 81.4093 79.2189 81.4093H69.1902V88.1823H77.8137C78.9234 88.1823 79.8492 89.1442 79.8492 90.2178C79.8492 91.3646 78.9234 92.2894 77.8137 92.2894H69.1902V99.0995H79.2189C80.2935 99.0995 81.2544 100.025 81.2544 101.172C81.2544 102.282 80.2935 103.208 79.2189 103.208H67.2291C67.1547 103.208 67.1547 103.171 67.1547 103.171L67.1175 103.208C65.9696 103.208 65.082 102.282 65.082 101.172Z" fill="white"/>
<path d="M97.796 85.2582C97.796 83.1121 96.0932 81.4093 93.9833 81.4093H89.4319V89.0337H93.9833C96.0932 89.0337 97.796 87.3309 97.796 85.2582ZM102.977 100.136C103.348 101.209 102.755 102.356 101.681 102.726C101.533 102.763 101.238 102.838 100.867 102.838C100.867 102.838 100.867 102.838 100.83 102.838C100.461 102.838 99.9049 102.763 99.3862 102.431C98.9057 102.134 98.4986 101.654 98.2021 101.135C97.6844 100.061 97.4251 98.7296 97.4251 96.6941C97.3889 95.9905 97.2401 95.51 96.9808 95.1019C96.7586 94.6958 96.3154 94.326 95.8711 94.0294C95.0941 93.5118 94.1321 93.2152 93.7984 93.1408H89.4319V101.172C89.4319 102.282 88.5061 103.208 87.3592 103.208C86.2113 103.208 85.3237 102.282 85.3237 101.172V79.3366C85.3237 78.1897 86.2113 77.3011 87.3592 77.3011C87.3592 77.3011 87.3592 77.3011 87.3964 77.3011H93.9833C98.3881 77.3011 101.904 80.8534 101.904 85.2582C101.904 87.7008 100.793 89.8479 99.0173 91.3274C99.4978 91.6973 99.9421 92.1417 100.312 92.6965C101.053 93.7711 101.533 95.1401 101.533 96.6941C101.496 97.8038 101.608 98.5075 101.681 98.8774C102.273 99.0623 102.755 99.5077 102.977 100.136Z" fill="white"/>
<path d="M119.823 85.2582C119.823 83.1121 118.119 81.4093 116.011 81.4093H111.458V89.0337H116.011C118.119 89.0337 119.823 87.3309 119.823 85.2582ZM125.004 100.136C125.374 101.209 124.782 102.356 123.708 102.726C123.561 102.763 123.264 102.838 122.894 102.838C122.894 102.838 122.894 102.838 122.857 102.838C122.487 102.838 121.931 102.763 121.414 102.431C120.933 102.134 120.525 101.654 120.229 101.135C119.712 100.061 119.451 98.7296 119.451 96.6941C119.415 95.9905 119.267 95.51 119.008 95.1019C118.786 94.6958 118.342 94.326 117.897 94.0294C117.12 93.5118 116.158 93.2152 115.826 93.1408H111.458V101.172C111.458 102.282 110.533 103.208 109.387 103.208C108.239 103.208 107.351 102.282 107.351 101.172V79.3366C107.351 78.1897 108.239 77.3011 109.387 77.3011C109.387 77.3011 109.387 77.3011 109.423 77.3011H116.011C120.415 77.3011 123.93 80.8534 123.93 85.2582C123.93 87.7008 122.82 89.8479 121.044 91.3274C121.526 91.6973 121.969 92.1417 122.339 92.6965C123.079 93.7711 123.561 95.1401 123.561 96.6941C123.523 97.8038 123.635 98.5075 123.708 98.8774C124.301 99.0623 124.782 99.5077 125.004 100.136Z" fill="white"/>
<path d="M148.667 89.884C148.667 87.3681 147.668 85.036 146.151 83.4076C144.596 81.7431 142.522 80.7801 140.303 80.7801C137.935 80.7801 135.863 81.7431 134.307 83.4076C132.752 85.036 131.792 87.3681 131.792 89.884C131.792 92.401 132.752 94.733 134.307 96.3232C135.863 97.9898 137.935 98.989 140.303 98.989C142.522 98.989 144.596 97.9898 146.151 96.3232C147.668 94.733 148.667 92.401 148.667 89.884ZM149.147 80.5218C151.443 82.9633 152.886 86.2201 152.886 89.884C152.886 93.549 151.443 96.8419 149.147 99.2473C146.963 101.654 143.707 103.208 140.303 103.208C136.751 103.208 133.494 101.654 131.234 99.2473C128.941 96.8419 127.572 93.549 127.572 89.884C127.572 86.2201 128.941 82.9633 131.234 80.5218C133.494 78.0781 136.751 76.5613 140.303 76.5613C143.707 76.5613 146.963 78.0781 149.147 80.5218Z" fill="white"/>
<path d="M168.827 85.2582C168.827 83.1121 167.123 81.4093 165.016 81.4093H160.462V89.0337H165.016C167.123 89.0337 168.827 87.3309 168.827 85.2582ZM174.008 100.136C174.378 101.209 173.787 102.356 172.712 102.726C172.565 102.763 172.269 102.838 171.898 102.838C171.898 102.838 171.898 102.838 171.861 102.838C171.491 102.838 170.936 102.763 170.418 102.431C169.938 102.134 169.53 101.654 169.233 101.135C168.716 100.061 168.456 98.7296 168.456 96.6941C168.42 95.9905 168.271 95.51 168.012 95.1019C167.79 94.6958 167.347 94.326 166.902 94.0294C166.125 93.5118 165.163 93.2152 164.831 93.1408H160.462V101.172C160.462 102.282 159.537 103.208 158.39 103.208C157.242 103.208 156.355 102.282 156.355 101.172V79.3366C156.355 78.1897 157.242 77.3011 158.39 77.3011C158.39 77.3011 158.39 77.3011 158.427 77.3011H165.016C169.419 77.3011 172.935 80.8534 172.935 85.2582C172.935 87.7008 171.825 89.8479 170.049 91.3274C170.529 91.6973 170.973 92.1417 171.343 92.6965C172.084 93.7711 172.564 95.1401 172.564 96.6941C172.527 97.8038 172.639 98.5075 172.712 98.8774C173.304 99.0623 173.787 99.5077 174.008 100.136Z" fill="white"/>
<path d="M101.659 52.6213L94.2936 61.7625H101.659V52.6213ZM108.172 63.798C108.172 64.9449 107.247 65.8335 106.099 65.8335H105.73V68.646C105.73 69.7929 104.841 70.6814 103.694 70.6814C102.547 70.6814 101.659 69.7929 101.659 68.646V65.8335H90.0748H90.0376H90.0004C89.5561 65.8335 89.1118 65.7229 88.7419 65.3892C87.8172 64.6855 87.7056 63.4281 88.4092 62.5395L102.103 45.5157C102.139 45.5157 102.139 45.4785 102.176 45.4413C102.213 45.4041 102.251 45.3669 102.288 45.2936C102.398 45.2564 102.436 45.2192 102.473 45.1819C102.509 45.1447 102.583 45.1086 102.621 45.0714C102.695 45.0342 102.731 44.997 102.843 44.997C102.88 44.9226 102.917 44.8865 102.991 44.8865C103.028 44.8493 103.102 44.8493 103.214 44.8121C103.25 44.8121 103.324 44.812 103.36 44.7748C103.435 44.7748 103.546 44.7748 103.62 44.7748C103.62 44.7748 103.657 44.7748 103.694 44.7748C103.731 44.7748 103.731 44.7748 103.768 44.7748C103.842 44.7748 103.952 44.7748 103.991 44.7748C104.064 44.812 104.101 44.8121 104.176 44.8121C104.212 44.8493 104.323 44.8493 104.397 44.8865C104.435 44.8865 104.508 44.9226 104.545 44.9226C104.619 44.997 104.693 45.0342 104.73 45.0714C104.804 45.1086 104.841 45.1447 104.915 45.1819C104.915 45.1819 104.953 45.1819 104.953 45.2191C104.989 45.2191 105.063 45.2564 105.063 45.2936C105.138 45.3669 105.175 45.4041 105.211 45.4413C105.248 45.4785 105.285 45.5529 105.322 45.5901C105.36 45.6262 105.396 45.6635 105.47 45.774C105.47 45.8123 105.507 45.8856 105.545 45.9228C105.582 45.9961 105.582 46.0334 105.619 46.145C105.619 46.1822 105.655 46.2555 105.655 46.2927C105.692 46.3671 105.692 46.4043 105.692 46.5149C105.692 46.5893 105.73 46.6254 105.73 46.6998C105.73 46.737 105.73 46.7742 105.73 46.8104V61.7625H106.099C107.247 61.7625 108.172 62.6872 108.172 63.798Z" fill="white"/>
<path d="M125.471 57.7287C125.471 55.0639 124.731 52.733 123.694 51.1407C122.621 49.5867 121.399 48.8458 120.251 48.8841C119.105 48.8458 117.847 49.5867 116.736 51.1407C115.701 52.733 114.96 55.0639 114.96 57.7287C114.96 60.3562 115.701 62.7255 116.736 64.2795C117.847 65.8707 119.105 66.5743 120.251 66.5743C121.399 66.5743 122.621 65.8707 123.694 64.2795C124.731 62.7255 125.471 60.3562 125.471 57.7287ZM110.852 57.7287C110.889 54.3231 111.741 51.2523 113.368 48.8841C114.923 46.5148 117.328 44.7748 120.251 44.7748C123.102 44.7748 125.544 46.5148 127.099 48.8841C128.691 51.2523 129.579 54.3231 129.579 57.7287C129.579 61.096 128.691 64.2051 127.099 66.5743C125.544 68.9053 123.102 70.6814 120.251 70.6814C117.328 70.6814 114.923 68.9053 113.368 66.5743C111.741 64.2051 110.889 61.096 110.852 57.7287Z" fill="white"/>
<path d="M145.033 52.6213L137.668 61.7625H145.033V52.6213ZM151.547 63.798C151.547 64.9449 150.622 65.8335 149.474 65.8335H149.104V68.646C149.104 69.7929 148.217 70.6814 147.069 70.6814C145.921 70.6814 145.033 69.7929 145.033 68.646V65.8335H133.449H133.411H133.375C132.931 65.8335 132.488 65.7229 132.117 65.3892C131.191 64.6855 131.08 63.4281 131.784 62.5395L145.479 45.5157C145.515 45.5157 145.515 45.4785 145.551 45.4413C145.587 45.4041 145.624 45.3669 145.664 45.2936C145.772 45.2564 145.81 45.2192 145.848 45.1819C145.885 45.1447 145.958 45.1086 145.996 45.0714C146.069 45.0342 146.106 44.997 146.218 44.997C146.254 44.9226 146.291 44.8865 146.366 44.8865C146.402 44.8493 146.476 44.8493 146.587 44.8121C146.625 44.8121 146.699 44.812 146.735 44.7748C146.81 44.7748 146.92 44.7748 146.994 44.7748C146.994 44.7748 147.033 44.7748 147.069 44.7748C147.105 44.7748 147.105 44.7748 147.142 44.7748C147.217 44.7748 147.327 44.7748 147.365 44.7748C147.438 44.812 147.476 44.8121 147.55 44.8121C147.587 44.8493 147.699 44.8493 147.771 44.8865C147.809 44.8865 147.883 44.9226 147.92 44.9226C147.994 44.997 148.068 45.0342 148.104 45.0714C148.179 45.1086 148.217 45.1447 148.289 45.1819C148.289 45.1819 148.326 45.1819 148.326 45.2191C148.366 45.2191 148.438 45.2564 148.438 45.2936C148.511 45.3669 148.55 45.4041 148.587 45.4413C148.623 45.4785 148.66 45.5529 148.697 45.5901C148.734 45.6262 148.771 45.6635 148.845 45.774C148.845 45.8123 148.883 45.8856 148.919 45.9228C148.956 45.9961 148.956 46.0334 148.993 46.145C148.993 46.1822 149.031 46.2555 149.031 46.2927C149.068 46.3671 149.068 46.4043 149.068 46.5149C149.068 46.5893 149.104 46.6254 149.104 46.6998C149.104 46.737 149.104 46.7742 149.104 46.8104V61.7625H149.474C150.622 61.7625 151.547 62.6872 151.547 63.798Z" fill="white"/>
</svg>
