<svg width="48" height="48" viewBox="0 0 48 48" fill="none" xmlns="http://www.w3.org/2000/svg">
<path fill-rule="evenodd" clip-rule="evenodd" d="M24.0104 5.55833C23.8408 5.74172 23.6031 6.1085 23.3657 6.7446L23.3648 6.74698L19.8409 16.1372C19.4178 17.2404 18.5872 18.0914 17.4882 18.4289C16.3892 18.7664 15.2224 18.5288 14.2466 17.8533L14.2275 17.8401L6.4253 12.2582C5.98102 11.9391 5.62515 11.7405 5.35837 11.6246C5.39559 11.9149 5.48822 12.3153 5.67327 12.8362C5.6731 12.8357 5.67344 12.8367 5.67327 12.8362L13.9562 36.0044C13.9718 36.0488 14.0472 36.1786 14.2261 36.305C14.4052 36.4315 14.5539 36.46 14.6004 36.46H33.4004C33.4478 36.46 33.6015 36.4309 33.7921 36.2996C33.9701 36.177 34.056 36.0507 34.0807 35.9994L42.1462 13.4199C42.1465 13.419 42.1469 13.4181 42.1472 13.4172C42.4043 12.6894 42.5019 12.1644 42.5159 11.8226C42.1936 11.9312 41.7194 12.1703 41.0952 12.6185L41.0913 12.6212L33.7632 17.847C32.7926 18.5295 31.6261 18.7668 30.5284 18.4284C29.4325 18.0905 28.6028 17.2397 28.1799 16.1372L28.176 16.127L24.656 6.74698L24.6551 6.7446C24.4177 6.1085 24.18 5.74172 24.0104 5.55833ZM27.465 5.69361C27.144 4.83433 26.7309 4.07734 26.2023 3.50997C25.6683 2.93682 24.9251 2.46997 24.0104 2.46997C23.0957 2.46997 22.3525 2.93682 21.8185 3.50997C21.2899 4.07735 20.8767 4.83435 20.5558 5.69364C20.5556 5.6942 20.556 5.69307 20.5558 5.69364L17.0383 15.0669C16.9016 15.4204 16.7132 15.5286 16.6076 15.561C16.5025 15.5933 16.2821 15.6109 15.9622 15.3922L8.1755 9.82169C8.17511 9.82141 8.17589 9.82198 8.1755 9.82169C7.38929 9.25709 6.60474 8.82919 5.85653 8.62484C5.12508 8.42507 4.17268 8.37923 3.37203 8.98062C2.57092 9.58236 2.34957 10.5106 2.33837 11.271C2.32692 12.0488 2.52056 12.9238 2.84701 13.8423L2.84795 13.8449L11.1246 36.9955C11.1252 36.9973 11.1259 36.9991 11.1265 37.0009C11.3916 37.754 11.9249 38.3523 12.4947 38.755C13.0656 39.1584 13.8069 39.46 14.6004 39.46H33.4004C34.193 39.46 34.9293 39.1591 35.4937 38.7703C36.0574 38.3821 36.5925 37.8081 36.8756 37.0907C36.8817 37.0754 36.8875 37.06 36.893 37.0446L44.973 14.4246L44.9746 14.42C45.3261 13.4259 45.5304 12.4874 45.5171 11.6598C45.504 10.8499 45.2682 9.8884 44.4451 9.26604C43.6202 8.64223 42.6298 8.67957 41.8462 8.89186C41.0478 9.10819 40.2039 9.56553 39.3478 10.1799C39.347 10.1804 39.3463 10.181 39.3456 10.1815L32.0376 15.3929C32.0365 15.3937 32.0353 15.3945 32.0342 15.3953C31.7267 15.6103 31.5143 15.593 31.4124 15.5616C31.3087 15.5296 31.1195 15.4211 30.9826 15.0671L27.465 5.69361C27.4652 5.69419 27.4648 5.69303 27.465 5.69361Z" fill="#00020C"/>
<path fill-rule="evenodd" clip-rule="evenodd" d="M11.5 44C11.5 43.1716 12.1716 42.5 13 42.5H35C35.8284 42.5 36.5 43.1716 36.5 44C36.5 44.8284 35.8284 45.5 35 45.5H13C12.1716 45.5 11.5 44.8284 11.5 44Z" fill="#00020C"/>
<path fill-rule="evenodd" clip-rule="evenodd" d="M17.5 28C17.5 27.1716 18.1716 26.5 19 26.5H29C29.8284 26.5 30.5 27.1716 30.5 28C30.5 28.8284 29.8284 29.5 29 29.5H19C18.1716 29.5 17.5 28.8284 17.5 28Z" fill="#00020C"/>
</svg>
