<svg width="24" height="24" viewBox="0 0 24 24" fill="none" xmlns="http://www.w3.org/2000/svg">
<path d="M11.1628 22H7.25581C3.6186 22 2 20.3814 2 16.7442V12.8372C2 9.2 3.6186 7.5814 7.25581 7.5814H11.1628C14.8 7.5814 16.4186 9.2 16.4186 12.8372V16.7442C16.4186 20.3814 14.8 22 11.1628 22ZM7.25581 8.97675C4.37209 8.97675 3.39535 9.95349 3.39535 12.8372V16.7442C3.39535 19.6279 4.37209 20.6047 7.25581 20.6047H11.1628C14.0465 20.6047 15.0233 19.6279 15.0233 16.7442V12.8372C15.0233 9.95349 14.0465 8.97675 11.1628 8.97675H7.25581Z" fill="white"/>
<path d="M16.7442 16.4186H15.7209C15.3395 16.4186 15.0233 16.1023 15.0233 15.7209V12.8372C15.0233 9.95349 14.0465 8.97674 11.1628 8.97674H8.27906C7.89767 8.97674 7.58139 8.66047 7.58139 8.27907V7.25581C7.58139 3.6186 9.19999 2 12.8372 2H16.7442C20.3814 2 22 3.6186 22 7.25581V11.1628C22 14.8 20.3814 16.4186 16.7442 16.4186ZM16.4186 15.0233H16.7442C19.6279 15.0233 20.6046 14.0465 20.6046 11.1628V7.25581C20.6046 4.37209 19.6279 3.39535 16.7442 3.39535H12.8372C9.95348 3.39535 8.97674 4.37209 8.97674 7.25581V7.5814H11.1628C14.8 7.5814 16.4186 9.2 16.4186 12.8372V15.0233Z" fill="white"/>
</svg>
