<svg width="20" height="20" viewBox="0 0 20 20" fill="none" xmlns="http://www.w3.org/2000/svg">
<path d="M14.3035 17.6646C13.3882 18.5442 12.3888 18.4053 11.4267 17.9887C10.4086 17.5628 9.47455 17.5443 8.40041 17.9887C7.05539 18.5627 6.34552 18.396 5.54224 17.6646C0.984125 13.0078 1.65663 5.91612 6.83122 5.65689C8.09217 5.7217 8.97017 6.34199 9.70806 6.39754C10.8102 6.17535 11.8657 5.53654 13.0426 5.61986C14.453 5.73096 15.5178 6.28644 16.2183 7.28632C13.3041 9.01758 13.9953 12.8227 16.6667 13.8873C16.1343 15.2761 15.4431 16.6555 14.2942 17.6739L14.3035 17.6646ZM9.61466 5.60135C9.47455 3.53679 11.1652 1.8333 13.108 1.66666C13.3788 4.05524 10.9223 5.8328 9.61466 5.60135Z" fill="white"/>
</svg>
