<svg width="28" height="28" viewBox="0 0 28 28" fill="none" xmlns="http://www.w3.org/2000/svg">
<path d="M16.3333 12.8334V18.6667" stroke="#69A4C1" stroke-width="1.75" stroke-linecap="round"/>
<path d="M11.6665 12.8334V18.6667" stroke="#69A4C1" stroke-width="1.75" stroke-linecap="round"/>
<path d="M21.1367 7.11401C22.134 7.85679 22.8403 8.38369 23.3663 8.84553C23.8827 9.29885 24.1759 9.64821 24.3697 10.0123C24.7681 10.7611 24.7916 11.6176 24.7916 13.943V15.683C24.7916 18.0649 24.7891 19.7488 24.5886 21.0246C24.3946 22.2595 24.032 22.9897 23.3891 23.5398C22.7266 24.1067 21.8144 24.4405 20.3007 24.6147C18.7739 24.7903 16.771 24.7917 13.9999 24.7917C11.2288 24.7917 9.22595 24.7903 7.69918 24.6147C6.18539 24.4405 5.27324 24.1067 4.6107 23.5398C3.96783 22.9897 3.60523 22.2595 3.41122 21.0246C3.21077 19.7488 3.20825 18.0649 3.20825 15.683L3.20825 13.943C3.20825 11.6176 3.23175 10.7611 3.63018 10.0123C3.82393 9.64821 4.11718 9.29885 4.63351 8.84553C5.15955 8.38369 5.86587 7.85679 6.86314 7.11401C8.7055 5.74179 10.0263 4.75984 11.1559 4.11214C12.2628 3.47745 13.113 3.20834 13.9999 3.20834C14.8868 3.20834 15.737 3.47745 16.8439 4.11214C17.9735 4.75984 19.2943 5.74179 21.1367 7.11401Z" stroke="#69A4C1" stroke-width="1.75"/>
</svg>
