<svg width="28" height="28" viewBox="0 0 28 28" fill="none" xmlns="http://www.w3.org/2000/svg">
<circle cx="13.5085" cy="8.49104" r="5.57437" stroke="white" stroke-width="1.75" stroke-linecap="round" stroke-linejoin="round"/>
<path fill-rule="evenodd" clip-rule="evenodd" d="M4.66652 21.8183C4.66503 21.4264 4.75267 21.0393 4.92282 20.6863C5.45676 19.6184 6.96248 19.0524 8.21191 18.7961C9.11299 18.6039 10.0265 18.4754 10.9457 18.4117C12.6475 18.2622 14.3591 18.2622 16.0609 18.4117C16.98 18.4761 17.8935 18.6046 18.7947 18.7961C20.0441 19.0524 21.5498 19.565 22.0838 20.6863C22.4259 21.4059 22.4259 22.2413 22.0838 22.9609C21.5498 24.0822 20.0441 24.5948 18.7947 24.8404C17.8946 25.0406 16.9808 25.1727 16.0609 25.2355C14.6758 25.3529 13.2842 25.3743 11.8961 25.2996C11.5758 25.2996 11.2661 25.2996 10.9457 25.2355C10.0292 25.1735 9.11888 25.0414 8.22259 24.8404C6.96248 24.5948 5.46744 24.0822 4.92282 22.9609C4.75354 22.6038 4.66598 22.2135 4.66652 21.8183Z" stroke="white" stroke-width="1.75" stroke-linecap="round" stroke-linejoin="round"/>
</svg>
