<svg width="22" height="22" viewBox="0 0 22 22" fill="none" xmlns="http://www.w3.org/2000/svg">
<path d="M18.9035 17.2379C19.0133 17.3473 19.1005 17.4774 19.1599 17.6207C19.2194 17.7639 19.25 17.9175 19.25 18.0726C19.25 18.2277 19.2194 18.3813 19.1599 18.5246C19.1005 18.6678 19.0133 18.7979 18.9035 18.9074C18.6812 19.1269 18.3813 19.25 18.0689 19.25C17.7566 19.25 17.4567 19.1269 17.2344 18.9074L11 12.6711L4.76558 18.9074C4.54325 19.1269 4.24344 19.25 3.93105 19.25C3.61866 19.25 3.31885 19.1269 3.09652 18.9074C2.98669 18.7979 2.89954 18.6678 2.84007 18.5246C2.78061 18.3813 2.75 18.2277 2.75 18.0726C2.75 17.9175 2.78061 17.7639 2.84007 17.6207C2.89954 17.4774 2.98669 17.3473 3.09652 17.2379L9.33094 11.0016L3.09652 4.76533C2.87519 4.54393 2.75085 4.24365 2.75085 3.93055C2.75085 3.77552 2.78138 3.62201 2.84069 3.47877C2.9 3.33554 2.98693 3.2054 3.09652 3.09578C3.20611 2.98615 3.33622 2.89919 3.47941 2.83986C3.6226 2.78054 3.77606 2.75 3.93105 2.75C4.24406 2.75 4.54425 2.87438 4.76558 3.09578L11 9.33204L17.2344 3.09578C17.4558 2.87438 17.7559 2.75 18.0689 2.75C18.382 2.75 18.6821 2.87438 18.9035 3.09578C19.1248 3.31717 19.2492 3.61745 19.2492 3.93055C19.2492 4.24365 19.1248 4.54393 18.9035 4.76533L12.6691 11.0016L18.9035 17.2379Z" fill="white"/>
</svg>
