<svg width="22" height="22" viewBox="0 0 22 22" fill="none" xmlns="http://www.w3.org/2000/svg">
<path d="M7.93023 21.2326H14.0698C19.186 21.2326 21.2326 19.186 21.2326 14.0698V7.93023C21.2326 2.81395 19.186 0.767442 14.0698 0.767442H7.93023C2.81395 0.767442 0.767442 2.81395 0.767442 7.93023V14.0698C0.767442 19.186 2.81395 21.2326 7.93023 21.2326Z" stroke="white" stroke-width="1.5" stroke-linecap="round" stroke-linejoin="round"/>
<path d="M11.614 17.6512H15.5023C17.0372 17.6512 17.6512 17.0372 17.6512 15.5023V13.6605C17.6512 12.1256 17.0372 11.5116 15.5023 11.5116H11.614C10.0791 11.5116 9.46512 12.1256 9.46512 13.6605V15.5023C9.46512 17.0372 10.0791 17.6512 11.614 17.6512Z" stroke="white" stroke-width="1.5" stroke-linecap="round" stroke-linejoin="round"/>
</svg>
