<svg width="12" height="12" viewBox="0 0 12 12" fill="none" xmlns="http://www.w3.org/2000/svg">
<path fill-rule="evenodd" clip-rule="evenodd" d="M6.0026 1.38959C5.9602 1.43544 5.90078 1.52713 5.84141 1.68616L5.84119 1.68675L4.96024 4.0343C4.85444 4.31011 4.6468 4.52287 4.37205 4.60723C4.09729 4.6916 3.80559 4.63221 3.56165 4.46332L3.55689 4.46003L1.60632 3.06457C1.49526 2.98479 1.40629 2.93512 1.33959 2.90617C1.3489 2.97874 1.37206 3.07883 1.41832 3.20905C1.41827 3.20893 1.41836 3.20917 1.41832 3.20905L3.48905 9.00112C3.49294 9.01221 3.51181 9.04466 3.55652 9.07625C3.60129 9.10789 3.63848 9.115 3.6501 9.115H8.3501C8.36194 9.115 8.40037 9.10773 8.44802 9.07491C8.49253 9.04426 8.51401 9.01269 8.52016 8.99986L10.5366 3.35499C10.5366 3.35476 10.5367 3.35453 10.5368 3.3543C10.6011 3.17236 10.6255 3.0411 10.629 2.95565C10.5484 2.9828 10.4299 3.04258 10.2738 3.15462L10.2728 3.15532L8.4408 4.46177C8.19814 4.63238 7.90652 4.69171 7.63211 4.6071C7.35814 4.52263 7.15069 4.30993 7.04497 4.0343L7.044 4.03176L6.16401 1.68675L6.16378 1.68616C6.10441 1.52713 6.045 1.43544 6.0026 1.38959ZM6.86625 1.42341C6.78601 1.20859 6.68272 1.01934 6.55057 0.8775C6.41707 0.734214 6.23128 0.6175 6.0026 0.6175C5.77392 0.6175 5.58813 0.734214 5.45463 0.8775C5.32248 1.01934 5.21919 1.20859 5.13894 1.42342C5.13889 1.42356 5.139 1.42327 5.13894 1.42342L4.25957 3.76674C4.22539 3.8551 4.17829 3.88217 4.1519 3.89027C4.12562 3.89834 4.07053 3.90272 3.99056 3.84806L2.04387 2.45543C2.04378 2.45536 2.04397 2.4555 2.04387 2.45543C1.84732 2.31428 1.65119 2.20731 1.46413 2.15622C1.28127 2.10628 1.04317 2.09481 0.843007 2.24516C0.64273 2.3956 0.587392 2.62766 0.584593 2.81776C0.58173 3.01221 0.630141 3.23096 0.711754 3.46059L0.711987 3.46124L2.78115 9.24888C2.78131 9.24933 2.78147 9.24978 2.78163 9.25024C2.84791 9.4385 2.98123 9.58808 3.12368 9.68875C3.2664 9.78961 3.45172 9.865 3.6501 9.865H8.3501C8.54826 9.865 8.73233 9.78977 8.87343 9.69259C9.01435 9.59553 9.14812 9.45203 9.21891 9.27269C9.22042 9.26886 9.22186 9.26502 9.22325 9.26115L11.2432 3.60615L11.2436 3.60501C11.3315 3.35649 11.3826 3.12185 11.3793 2.91497C11.376 2.71247 11.317 2.47211 11.1113 2.31652C10.9051 2.16057 10.6574 2.1699 10.4616 2.22297C10.262 2.27706 10.051 2.39139 9.83695 2.54499C9.83676 2.54512 9.83658 2.54525 9.8364 2.54538L8.00941 3.84824C8.00912 3.84844 8.00883 3.84864 8.00855 3.84884C7.93167 3.90259 7.87859 3.89826 7.85309 3.8904C7.82717 3.8824 7.77988 3.85529 7.74564 3.76677L6.86625 1.42341C6.86631 1.42355 6.8662 1.42327 6.86625 1.42341Z" fill="white"/>
<path fill-rule="evenodd" clip-rule="evenodd" d="M2.875 11C2.875 10.7929 3.04289 10.625 3.25 10.625H8.75C8.95711 10.625 9.125 10.7929 9.125 11C9.125 11.2071 8.95711 11.375 8.75 11.375H3.25C3.04289 11.375 2.875 11.2071 2.875 11Z" fill="white"/>
<path fill-rule="evenodd" clip-rule="evenodd" d="M4.375 7C4.375 6.79289 4.54289 6.625 4.75 6.625H7.25C7.45711 6.625 7.625 6.79289 7.625 7C7.625 7.20711 7.45711 7.375 7.25 7.375H4.75C4.54289 7.375 4.375 7.20711 4.375 7Z" fill="white"/>
</svg>
