<svg width="28" height="28" viewBox="0 0 28 28" fill="none" xmlns="http://www.w3.org/2000/svg">
<path d="M16.3335 12.8334V18.6667" stroke="white" stroke-width="1.75" stroke-linecap="round"/>
<path d="M11.667 12.8334V18.6667" stroke="white" stroke-width="1.75" stroke-linecap="round"/>
<path d="M21.1369 7.11401C22.1342 7.85679 22.8405 8.38369 23.3666 8.84553C23.8829 9.29885 24.1762 9.64821 24.3699 10.0123C24.7683 10.7611 24.7918 11.6176 24.7918 13.943V15.683C24.7918 18.0649 24.7893 19.7488 24.5889 21.0246C24.3948 22.2595 24.0322 22.9897 23.3894 23.5398C22.7268 24.1067 21.8147 24.4405 20.3009 24.6147C18.7741 24.7903 16.7713 24.7917 14.0002 24.7917C11.2291 24.7917 9.22619 24.7903 7.69942 24.6147C6.18564 24.4405 5.27348 24.1067 4.61095 23.5398C3.96808 22.9897 3.60548 22.2595 3.41146 21.0246C3.21102 19.7488 3.2085 18.0649 3.2085 15.683L3.2085 13.943C3.2085 11.6176 3.23199 10.7611 3.63043 10.0123C3.82417 9.64821 4.11742 9.29885 4.63375 8.84553C5.1598 8.38369 5.86611 7.85679 6.86338 7.11401C8.70574 5.74179 10.0266 4.75984 11.1561 4.11214C12.2631 3.47745 13.1133 3.20834 14.0002 3.20834C14.8871 3.20834 15.7373 3.47745 16.8442 4.11214C17.9738 4.75984 19.2946 5.74179 21.1369 7.11401Z" stroke="white" stroke-width="1.75"/>
</svg>
