<svg width="20" height="20" viewBox="0 0 20 20" fill="none" xmlns="http://www.w3.org/2000/svg">
<path d="M18.1711 8.36791H17.4998V8.33332H9.99984V11.6667H14.7094C14.0223 13.6071 12.1761 15 9.99984 15C7.23859 15 4.99984 12.7612 4.99984 9.99999C4.99984 7.23874 7.23859 4.99999 9.99984 4.99999C11.2744 4.99999 12.434 5.48082 13.3169 6.26624L15.674 3.90916C14.1857 2.52207 12.1948 1.66666 9.99984 1.66666C5.39775 1.66666 1.6665 5.39791 1.6665 9.99999C1.6665 14.6021 5.39775 18.3333 9.99984 18.3333C14.6019 18.3333 18.3332 14.6021 18.3332 9.99999C18.3332 9.44124 18.2757 8.89582 18.1711 8.36791Z" fill="#FFC107"/>
<path d="M2.62734 6.12124L5.36525 8.12916C6.10609 6.29499 7.90025 4.99999 9.99984 4.99999C11.2744 4.99999 12.434 5.48082 13.3169 6.26624L15.674 3.90916C14.1857 2.52207 12.1948 1.66666 9.99984 1.66666C6.799 1.66666 4.02317 3.47374 2.62734 6.12124Z" fill="#FF3D00"/>
<path d="M9.99984 18.3333C12.1523 18.3333 14.1082 17.5096 15.5869 16.17L13.0078 13.9875C12.143 14.6452 11.0863 15.0009 9.99984 15C7.83234 15 5.99192 13.6179 5.29859 11.6892L2.58109 13.7829C3.96025 16.4817 6.76109 18.3333 9.99984 18.3333Z" fill="#4CAF50"/>
<path d="M18.1711 8.36791H17.4998V8.33332H9.99984V11.6667H14.7094C14.3808 12.5902 13.7887 13.3971 13.0065 13.9879L13.0078 13.9875L15.5869 16.17C15.4044 16.3358 18.3332 14.1667 18.3332 9.99999C18.3332 9.44124 18.2757 8.89582 18.1711 8.36791Z" fill="#1976D2"/>
</svg>
