<svg width="28" height="28" viewBox="0 0 28 28" fill="none" xmlns="http://www.w3.org/2000/svg">
<path d="M17.7799 25.9817H17.6283C12.4483 25.9817 9.9516 23.94 9.51994 19.3667C9.47327 18.8883 9.82327 18.4567 10.3133 18.41C10.7799 18.3633 11.2233 18.725 11.2699 19.2033C11.6083 22.8667 13.3349 24.2317 17.6399 24.2317H17.7916C22.5399 24.2317 24.2199 22.5517 24.2199 17.8033V10.1967C24.2199 5.44834 22.5399 3.76834 17.7916 3.76834H17.6399C13.3116 3.76834 11.5849 5.15667 11.2699 8.89001C11.2116 9.36834 10.8033 9.73001 10.3133 9.68334C9.82327 9.64834 9.47327 9.21667 9.50827 8.73834C9.90494 4.09501 12.4133 2.01834 17.6283 2.01834H17.7799C23.5083 2.01834 25.9583 4.46834 25.9583 10.1967V17.8033C25.9583 23.5317 23.5083 25.9817 17.7799 25.9817Z" fill="white"/>
<path d="M17.5003 14.875H4.22363C3.7453 14.875 3.34863 14.4783 3.34863 14C3.34863 13.5217 3.7453 13.125 4.22363 13.125H17.5003C17.9786 13.125 18.3753 13.5217 18.3753 14C18.3753 14.4783 17.9786 14.875 17.5003 14.875Z" fill="white"/>
<path d="M6.82485 18.7833C6.60318 18.7833 6.38152 18.7017 6.20652 18.5267L2.29818 14.6183C1.95985 14.28 1.95985 13.72 2.29818 13.3817L6.20652 9.47333C6.54485 9.135 7.10485 9.135 7.44318 9.47333C7.78152 9.81166 7.78152 10.3717 7.44318 10.71L4.15318 14L7.44318 17.29C7.78152 17.6283 7.78152 18.1883 7.44318 18.5267C7.27985 18.7017 7.04652 18.7833 6.82485 18.7833Z" fill="white"/>
</svg>
