<svg width="207" height="42" viewBox="0 0 207 42" fill="none" xmlns="http://www.w3.org/2000/svg">
<rect y="15.9948" width="2.78171" height="9.73598" rx="1.39071" fill="#27C366"/>
<rect x="5.83458" y="14.604" width="2.78171" height="12.5177" rx="1.39071" fill="#27C366"/>
<rect x="11.6696" y="7.6497" width="2.78171" height="26.4262" rx="1.39071" fill="#27C366"/>
<rect x="17.5042" width="2.78171" height="41.7256" rx="1.39071" fill="#27C366"/>
<rect x="23.3393" y="7.6497" width="2.78171" height="26.4262" rx="1.39071" fill="#27C366"/>
<rect x="29.1739" y="14.604" width="2.78171" height="12.5177" rx="1.39071" fill="#27C366"/>
<rect x="35.0089" y="7.6497" width="2.78171" height="26.4262" rx="1.39071" fill="#27C366"/>
<rect x="40.8435" y="14.604" width="2.78171" height="12.5177" rx="1.39071" fill="#27C366"/>
<rect x="46.6786" y="9.04056" width="2.78171" height="23.6445" rx="1.39071" fill="#27C366"/>
<rect x="52.5131" y="11.8223" width="2.78171" height="18.0811" rx="1.39071" fill="#27C366"/>
<rect x="58.3482" y="15.9948" width="2.78171" height="9.73598" rx="1.39071" fill="#27C366"/>
<rect x="64.1828" y="14.604" width="2.78171" height="12.5177" rx="1.39071" fill="#27C366"/>
<rect x="70.0178" y="7.6497" width="2.78171" height="26.4262" rx="1.39071" fill="#27C366"/>
<rect x="75.8524" y="4.17257" width="2.78171" height="33.3805" rx="1.39071" fill="#27C366"/>
<rect x="81.6875" y="7.6497" width="2.78171" height="26.4262" rx="1.39071" fill="#27C366"/>
<rect x="87.5221" y="14.604" width="2.78171" height="12.5177" rx="1.39071" fill="#27C366"/>
<rect x="93.3566" y="7.6497" width="2.78171" height="26.4262" rx="1.39071" fill="#27C366"/>
<rect x="99.1917" y="14.604" width="2.78171" height="12.5177" rx="1.39071" fill="#27C366"/>
<rect x="105.026" y="9.04056" width="2.78171" height="23.6445" rx="1.39071" fill="#27C366"/>
<rect x="110.861" y="11.8223" width="2.78171" height="18.0811" rx="1.39071" fill="#27C366"/>
<rect opacity="0.16" x="116.696" y="15.9948" width="2.78171" height="9.73598" rx="1.39071" fill="#27C366"/>
<rect opacity="0.16" x="122.531" y="14.604" width="2.78171" height="12.5177" rx="1.39071" fill="#27C366"/>
<rect opacity="0.16" x="128.366" y="7.6497" width="2.78171" height="26.4262" rx="1.39071" fill="#27C366"/>
<rect opacity="0.16" x="134.201" width="2.78171" height="41.7256" rx="1.39071" fill="#27C366"/>
<rect opacity="0.16" x="140.035" y="7.6497" width="2.78171" height="26.4262" rx="1.39071" fill="#27C366"/>
<rect opacity="0.16" x="145.87" y="14.604" width="2.78171" height="12.5177" rx="1.39071" fill="#27C366"/>
<rect opacity="0.16" x="151.705" y="7.6497" width="2.78171" height="26.4262" rx="1.39071" fill="#27C366"/>
<rect opacity="0.16" x="157.54" y="14.604" width="2.78171" height="12.5177" rx="1.39071" fill="#27C366"/>
<rect opacity="0.16" x="163.374" y="9.04056" width="2.78171" height="23.6445" rx="1.39071" fill="#27C366"/>
<rect opacity="0.16" x="169.21" y="11.8223" width="2.78171" height="18.0811" rx="1.39071" fill="#27C366"/>
<rect opacity="0.16" x="175.044" y="15.9948" width="2.78171" height="9.73598" rx="1.39071" fill="#27C366"/>
<rect opacity="0.16" x="180.879" y="14.604" width="2.78171" height="12.5177" rx="1.39071" fill="#27C366"/>
<rect opacity="0.16" x="186.714" y="15.9948" width="2.78171" height="9.73598" rx="1.39071" fill="#27C366"/>
<rect opacity="0.16" x="192.548" y="14.604" width="2.78171" height="12.5177" rx="1.39071" fill="#27C366"/>
<rect opacity="0.16" x="198.383" y="15.9948" width="2.78171" height="9.73598" rx="1.39071" fill="#27C366"/>
<rect opacity="0.16" x="204.218" y="14.604" width="2.78171" height="12.5177" rx="1.39071" fill="#27C366"/>
</svg>
