<svg width="24" height="24" viewBox="0 0 24 24" fill="none" xmlns="http://www.w3.org/2000/svg">
<path d="M13.4027 21C13.0334 21 12.7681 20.8839 12.6068 20.6517C12.4449 20.4189 12.4255 20.13 12.5486 19.785L15.9187 11.0775C16.011 10.8375 16.1843 10.6311 16.4385 10.4583C16.6921 10.2861 16.9574 10.2 17.2343 10.2C17.4959 10.2 17.7575 10.2861 18.0191 10.4583C18.2807 10.6311 18.4577 10.8375 18.55 11.0775L21.9201 19.785C22.0432 20.13 22.0241 20.4189 21.8628 20.6517C21.7009 20.8839 21.4276 21 21.0429 21C20.8737 21 20.7198 20.9475 20.5813 20.8425C20.4428 20.7375 20.3428 20.61 20.2812 20.46L19.4964 18.255H15.0184L14.2106 20.46C14.149 20.61 14.0413 20.7375 13.8874 20.8425C13.7335 20.9475 13.5719 21 13.4027 21ZM15.5724 16.68H18.8963L17.2805 12.225H17.1882L15.5724 16.68ZM7.67826 8.895C7.92447 9.33 8.18607 9.7311 8.46306 10.0983C8.74004 10.4661 9.0632 10.845 9.43251 11.235C10.1096 10.515 10.6713 9.7764 11.1175 9.0192C11.5638 8.2614 11.9408 7.455 12.2486 6.6H2.92329C2.66169 6.6 2.44257 6.5139 2.26591 6.3417C2.08864 6.1689 2 5.955 2 5.7C2 5.445 2.08864 5.2311 2.26591 5.0583C2.44257 4.8861 2.66169 4.8 2.92329 4.8H8.46306V3.9C8.46306 3.645 8.55169 3.4311 8.72896 3.2583C8.90562 3.0861 9.12475 3 9.38635 3C9.64795 3 9.86739 3.0861 10.0447 3.2583C10.2213 3.4311 10.3096 3.645 10.3096 3.9V4.8H15.8494C16.111 4.8 16.3301 4.8861 16.5068 5.0583C16.6841 5.2311 16.7727 5.445 16.7727 5.7C16.7727 5.955 16.6841 6.1689 16.5068 6.3417C16.3301 6.5139 16.111 6.6 15.8494 6.6H14.0951C13.772 7.665 13.3334 8.7 12.7795 9.705C12.2255 10.71 11.5407 11.655 10.7251 12.54L12.941 14.745L12.2486 16.59L9.38635 13.8L5.41619 17.67C5.24692 17.835 5.03148 17.9175 4.76988 17.9175C4.50828 17.9175 4.29285 17.835 4.12358 17.67C3.9543 17.505 3.86967 17.295 3.86967 17.04C3.86967 16.785 3.9543 16.575 4.12358 16.41L8.1399 12.495C7.72442 12.03 7.33972 11.5611 6.98579 11.0883C6.63186 10.6161 6.3164 10.1175 6.03941 9.5925C5.87014 9.2775 5.86245 9 6.01633 8.76C6.17021 8.52 6.4395 8.4 6.82421 8.4C6.97809 8.4 7.13967 8.4486 7.30894 8.5458C7.47821 8.6436 7.60132 8.76 7.67826 8.895Z" fill="white"/>
</svg>
